<svg xmlns="http://www.w3.org/2000/svg" width="256" height="256" viewBox="0 0 100 100"><rect width="100" height="100" rx="50" fill="#000000"></rect><path fill="#fff" d="M51.67 30.20L51.67 30.20L59.28 30.20Q59.98 30.20 59.98 30.90L59.98 30.90L59.98 33.62Q59.98 34.33 59.28 34.33L59.28 34.33L53.96 34.33Q53.65 34.33 53.41 34.59Q53.17 34.86 53.26 35.12L53.26 35.12Q53.52 37.58 53.12 41.97L53.12 41.97L48.69 88.20Q48.51 89.70 47.81 89.72Q47.10 89.74 46.93 88.12L46.93 88.12Q45.83 74.67 44.69 61.27Q43.54 47.86 42.27 34.42L42.27 34.42L37.17 34.42Q36.51 34.42 36.49 33.78Q36.47 33.14 37.00 33.05L37.00 33.05Q39.85 32.57 41.74 30.11Q43.63 27.65 43.37 23.69L43.37 23.69Q43.06 17.45 44.99 13.21Q46.93 8.97 52.73 10.86L52.73 10.86Q55.94 11.96 58.60 12.77Q61.25 13.59 62.35 11.87L62.35 11.87Q62.88 10.95 63.32 11.08Q63.76 11.21 63.19 12.79L63.19 12.79Q61.61 17.80 59.08 19.54Q56.55 21.28 51.23 18.73L51.23 18.73Q46.09 16.35 45.19 21.08Q44.29 25.80 47.10 27.25L47.10 27.25Q49.83 28.75 50.66 29.71L50.66 29.71Q51.15 30.20 51.67 30.20Z"></path></svg>